<svg id="Layer_1" data-name="Layer 1" xmlns="http://www.w3.org/2000/svg" viewBox="0 0 195 195"><defs><style>.cls-1,.cls-4{fill:#fff;}.cls-2{fill:#020203;}.cls-3{fill:#e70606;}.cls-3,.cls-4{fill-rule:evenodd;}</style></defs><circle class="cls-1" cx="97.5" cy="97.5" r="92.69"/><path class="cls-2" d="M162.74,44.25c-2.23,3-12.65,15.6-27.36,13.41-44.07-6.54-55.82,13.8-56.06,37.6-.2,19.91-10.56,28.81-10.56,28.82-13.55,12.51-41.32,1.28-35.87-39.63a86.49,86.49,0,0,1,46.79-66.1c.06,0-1.48-1-1.48-1a11.07,11.07,0,0,0,.85-1.79C68,18.7,37.28,28.68,20.32,68.4c-12.4,29-8.06,56.91,9.9,74,10.13,9.62,22.72,19.21,48.86,16.07,0,0,.31,10.26-24.77,11.58a.31.31,0,0,0-.22.11c.63.37,1.26.74,1.9,1.1,21.06,7.39,35.19-5.48,44-18.6,0,0,13.4,12.53,2.35,28.48a.27.27,0,0,0,.23.43,103.84,103.84,0,0,0,10.81-1A84.43,84.43,0,0,0,162.74,44.25Z"/><path class="cls-3" d="M115.14,26.83A13.37,13.37,0,1,0,101.77,40.2a13.38,13.38,0,0,0,13.37-13.37"/><path class="cls-4" d="M103.66,101.38a2,2,0,1,0-2,2,2,2,0,0,0,2-2"/></svg>